<?xml version="1.0" encoding="UTF-8"?>
<svg id="Layer_1" xmlns="http://www.w3.org/2000/svg" version="1.1" viewBox="0 0 24 24">
  <!-- Generator: Adobe Illustrator 29.7.1, SVG Export Plug-In . SVG Version: 2.1.1 Build 8)  -->
  <defs>
    <style>
      .st0 {
        fill: #c1c1c1;
      }
    </style>
  </defs>
  <path class="st0" d="M17,2H7c-2.76,0-5,2.24-5,5v10c0,2.76,2.24,5,5,5h10c2.76,0,5-2.24,5-5V7c0-2.76-2.24-5-5-5ZM12,17c-2.76,0-5-2.24-5-5s2.24-5,5-5,5,2.24,5,5-2.24,5-5,5ZM17.35,7.62c-.55,0-1-.45-1-1s.45-1,1-1,1,.45,1,1-.45,1-1,1Z"/>
  <circle class="st0" cx="12" cy="12" r="3"/>
</svg>